<?xml version="1.0" encoding="UTF-8" standalone="no"?>
<svg
   xmlns:dc="http://purl.org/dc/elements/1.1/"
   xmlns:cc="http://creativecommons.org/ns#"
   xmlns:rdf="http://www.w3.org/1999/02/22-rdf-syntax-ns#"
   xmlns:svg="http://www.w3.org/2000/svg"
   xmlns="http://www.w3.org/2000/svg"
   xmlns:sodipodi="http://sodipodi.sourceforge.net/DTD/sodipodi-0.dtd"
   xmlns:inkscape="http://www.inkscape.org/namespaces/inkscape"
   width="9.168334in"
   height="3.1833334in"
   viewBox="0 0 2750.5002 955.00002"
   id="svg2"
   version="1.1"
   inkscape:version="1.0.1 (3bc2e813f5, 2020-09-07)"
   sodipodi:docname="MSZO_final_sub.svg"
   inkscape:export-filename="C:\Users\Peti\Pictures\mszo_mod.png"
   inkscape:export-xdpi="96"
   inkscape:export-ydpi="96">
  <metadata
     id="metadata9">
    <rdf:RDF>
      <cc:Work
         rdf:about="">
        <dc:format>image/svg+xml</dc:format>
        <dc:type
           rdf:resource="http://purl.org/dc/dcmitype/StillImage" />
        <dc:title />
      </cc:Work>
    </rdf:RDF>
  </metadata>
  <defs
     id="defs7" />
  <sodipodi:namedview
     pagecolor="#ffffff"
     bordercolor="#666666"
     borderopacity="1"
     objecttolerance="10"
     gridtolerance="10"
     guidetolerance="10"
     inkscape:pageopacity="0"
     inkscape:pageshadow="2"
     inkscape:window-width="1920"
     inkscape:window-height="1001"
     id="namedview5"
     showgrid="false"
     fit-margin-top="0"
     fit-margin-left="0"
     fit-margin-right="0"
     fit-margin-bottom="0"
     inkscape:zoom="1.1375"
     inkscape:cx="486.70138"
     inkscape:cy="208.08862"
     inkscape:window-x="-9"
     inkscape:window-y="-9"
     inkscape:window-maximized="1"
     inkscape:current-layer="svg2"
     inkscape:document-rotation="0" />
  <path
     id="FINAL"
     d="m 117.8,851.5 v 103 H 88.5 V 905.42 L 73.83,954.5 H 44.47 L 29.8,905.66 V 954.5 H 0.5 v -103 h 36.64 l 22,58.86 22.02,-58.86 z m 110.7,0 v 29.42 h -58.7 v 7.58 h 44.03 l -14.69,29.42 H 169.8 v 7.16 h 58.7 v 29.42 h -88 v -103 z m 109.53,87.92 c -10.01,10.06 -22.1,15.08 -36.26,15.08 -14.16,0 -26.25,-5.02 -36.25,-15.08 -10.02,-10.05 -15.02,-22.19 -15.02,-36.44 0,-14.21 5,-26.35 15.02,-36.4 10,-10.05 22.09,-15.08 36.25,-15.08 14.16,0 26.25,5.03 36.26,15.08 5.02,5.05 8.8,10.64 11.35,16.76 l -26.74,12.6 c -1.02,-3.14 -2.8,-5.99 -5.34,-8.55 -4.3,-4.31 -9.47,-6.47 -15.53,-6.47 -6.06,0 -11.23,2.16 -15.54,6.47 -4.29,4.31 -6.43,9.52 -6.43,15.61 0,6.09 2.14,11.29 6.43,15.61 4.31,4.31 9.48,6.47 15.54,6.47 6.06,0 11.23,-2.16 15.53,-6.49 2.34,-2.35 4.05,-5 5.12,-7.93 l 26.88,12 c -2.5,6.13 -6.25,11.72 -11.27,16.76 z m 39.4035,-87.92 h 29.3 v 37 h 36.7 v -37 h 29.3 v 103 h -29.3 v -36.58 h -36.7 v 36.58 h -29.3 z m 154.39275,88.42 -5.12,14.58 h -29.3 l 36.62,-103 h 29.3 l 36.63,103 h -29.3 l -5.2,-14.58 z m 24.17,-29.42 -7.32,-22.12 -7.32,22.12 z m 117.17804,-29.58 v 73.58 h -29.3 v -73.58 h -32.5 V 851.5 h 95.05 l -14.66,29.42 z m 88.22034,0 v 14.58 h 29.36 c 4.89,0 7.34,-2.43 7.34,-7.28 0,-4.86 -2.45,-7.3 -7.34,-7.3 z m 0,44.1 v 29.48 h -29.3 v -103 h 58.64 c 24.44,0 36.66,12.26 36.66,36.77 0,24.5 -9.77,36.75 -29.3,36.75 l 29.3,29.48 h -36.64 z m 139.84,29.48 c -14.12,0 -26.18,-5.02 -36.17,-15.08 -9.98,-10.05 -14.97,-22.19 -14.97,-36.44 0,-14.21 4.99,-26.35 14.97,-36.4 9.99,-10.05 22.05,-15.08 36.17,-15.08 14.13,0 26.19,5.03 36.17,15.08 9.99,10.05 14.99,22.19 14.99,36.4 0,14.25 -5,26.39 -14.99,36.44 -9.98,10.06 -22.04,15.08 -36.17,15.08 z m 0,-29.42 c 6.03,0 11.18,-2.16 15.45,-6.47 4.27,-4.32 6.41,-9.52 6.41,-15.61 0,-6.09 -2.14,-11.3 -6.41,-15.61 -4.27,-4.31 -9.42,-6.47 -15.45,-6.47 -6.02,0 -11.17,2.16 -15.44,6.47 -4.27,4.31 -6.4,9.52 -6.4,15.61 0,6.09 2.13,11.29 6.4,15.61 4.27,4.31 9.42,6.47 15.44,6.47 z M 1004.3946,903 v 51.5 h -29.29997 v -103 h 29.29997 l 36.7,51.5 v -51.5 h 29.3 v 103 h -29.3 z M 1126.8,851.5 v 103 h -29.3 v -103 z m 54.8306,36.78 29.29,-36.78 h 36.63 l -42.05,51.5 42.05,51.5 h -36.63 l -29.29,-36.78 v 36.78 h -29.3 v -103 h 29.3 z m 120.2894,51.64 -5.12,14.58 h -29.3 l 36.62,-103 h 29.3 l 36.63,103 h -29.3 l -5.2,-14.58 z m 24.17,-29.42 -7.32,-22.12 -7.32,22.12 z m 180.5276,7.42 c -24.45,0 -36.67,-11.17 -36.67,-33.51 0,-21.94 12.22,-32.91 36.66,-32.91 h 58.64 l -14.64,29.42 h -44.02 c -4.9,0 -7.34,1.16 -7.34,3.47 0,2.74 2.44,4.11 7.34,4.11 h 21.98 c 24.45,0 36.68,10.9 36.68,32.7 0,22.2 -12.22,33.3 -36.66,33.3 h -58.64 l 14.66,-29.42 h 44 c 4.89,0 7.34,-1.29 7.34,-3.88 0,-2.18 -2.45,-3.28 -7.34,-3.28 z m 173.4732,-66.42 v 29.42 l -49.36,44.16 h 49.36 v 29.42 h -88 v -29.42 l 49.36,-44.16 h -49.36 V 851.5 Z m 58.3535,88.42 -5.12,14.58 h -29.3 l 36.62,-103 h 29.3 l 36.63,103 h -29.3 l -5.2,-14.58 z m 24.17,-29.42 -7.32,-22.12 -7.32,22.12 z m 100.9581,-22.22 29.29,-36.78 h 36.63 l -42.05,51.5 42.05,51.5 h -36.63 l -29.29,-36.78 v 36.78 h -29.3 v -103 h 29.3 z m 135.2927,66.22 c -14.12,0 -26.18,-5.02 -36.17,-15.08 -9.98,-10.05 -14.97,-22.19 -14.97,-36.44 0,-14.21 4.99,-26.35 14.97,-36.4 9.99,-10.05 22.05,-15.08 36.17,-15.08 14.13,0 26.19,5.03 36.17,15.08 9.99,10.05 14.99,22.19 14.99,36.4 0,14.25 -5,26.39 -14.99,36.44 -9.98,10.06 -22.04,15.08 -36.17,15.08 z m 0,-29.42 c 6.03,0 11.18,-2.16 15.45,-6.47 4.27,-4.32 6.41,-9.52 6.41,-15.61 0,-6.09 -2.14,-11.3 -6.41,-15.61 -4.27,-4.31 -9.42,-6.47 -15.45,-6.47 -6.02,0 -11.17,2.16 -15.44,6.47 -4.27,4.31 -6.4,9.52 -6.4,15.61 0,6.09 2.13,11.29 6.4,15.61 4.27,4.31 9.42,6.47 15.44,6.47 z m 115.6296,-7.16 c -24.45,0 -36.67,-11.17 -36.67,-33.51 0,-21.94 12.22,-32.91 36.66,-32.91 h 58.64 l -14.64,29.42 h -44.02 c -4.9,0 -7.34,1.16 -7.34,3.47 0,2.74 2.44,4.11 7.34,4.11 h 21.98 c 24.45,0 36.68,10.9 36.68,32.7 0,22.2 -12.22,33.3 -36.66,33.3 h -58.64 l 14.66,-29.42 h 44 c 4.89,0 7.34,-1.29 7.34,-3.88 0,-2.18 -2.45,-3.28 -7.34,-3.28 z m 178.445,-66.42 v 29.42 l -49.36,44.16 h 49.36 v 29.42 h -88 v -29.42 l 49.36,-44.16 h -49.36 V 851.5 Z m 93.9676,29.42 v 73.58 h -29.3 v -73.58 h -32.5 V 851.5 h 95.05 l -14.66,29.42 z m 103.9155,-36.42 h -29.3 l 14.64,-37 h 29.3 z m -27.33,95.42 -5.12,14.58 h -29.3 l 36.62,-103 h 29.3 l 36.63,103 h -29.3 l -5.2,-14.58 z m 24.17,-29.42 -7.32,-22.12 -7.32,22.12 z m 74.4203,-59 h 29.3 v 73.58 h 51.26 l -14.64,29.42 h -65.92 z m 121.7698,58.58379 -36.62,-58.86 h 31.28 l 20,29.42 19.98,-29.42 h 31.28 l -36.62,58.86 v 44.14 h -29.3 z M 351.5,317.5 h -2 C 349.5,317.5 132.19,26.26 126.41,20.67 114.76,9.41 97.8,1.69 81.5,1.5 h -10 C 40.06,1.55 12.37,24.7 3.93,54.5 -0.24,69.21 0.69,91.02 0.69,106.56 l 0.3,692.46 99.04,-99.03 -0.05,-550.37 175.65,233.88 c 15.31,20.42 26.45,36.21 51.87,44.92 30.51,10.46 63.27,-1.86 83.56,-25.92 l 189.97,-252.89 -0.09,494.08 0.56,17.81 c 0.02,11.69 3.84,30.94 7.69,42 4.17,11.94 10.21,24.56 17.34,35 21.71,31.78 55.24,52.2 92.97,58.75 l 19,2.25 19,1 h 361 l 19,-1 c 11.4,-0.02 27.85,-2.85 39,-5.63 48.13,-11.97 91.52,-39.52 122.55,-78.37 24.81,-31.06 43.07,-69.43 48.58,-109 0.88,-6.33 1.86,-12.6 1.87,-19 v -25 c -0.3,-25.34 -11.47,-59.43 -22.75,-82 -27.53,-55.06 -75.59,-98.78 -134.25,-118.33 -15.77,-5.26 -37.4,-10.47 -54,-10.67 l -20,-1 h -149 c -8.2,-0.01 -13.15,-1.15 -21,-3.13 -41.92,-10.52 -79.96,-47.83 -92.97,-88.87 -5.23,-16.5 -5.22,-24.14 -5.03,-41 0.36,-30.04 18.72,-63.61 40,-83.96 19.72,-18.86 50.43,-33 78,-33.04 h 814 c 8.44,0.01 16.84,1.54 25,3.63 39.33,10.07 69.66,39.01 84.6,76.37 4.3,10.75 8.26,25.4 8.4,37 v 13 c -0.04,27.42 -17.24,59.76 -36.01,79 -21.74,22.28 -51.82,40.95 -83.99,41 h -148 l -21,1 c -14.02,0.17 -35.47,5.12 -49,9.28 -61.47,18.9 -112.91,65.93 -140.3,123.72 -10.21,21.55 -20.42,54.09 -20.7,78 -0.34,29.72 0.41,49.17 9.74,78 19.62,60.61 65.18,113.1 123.26,139.69 20.81,9.53 54.11,19.04 77,19.31 l 21,1 h 361 l 18,-1 c 12,-0.06 31.59,-4.15 43,-8.08 40.01,-13.77 71.36,-44.13 85.95,-83.92 4.98,-13.59 9.02,-32.54 9.05,-47 l 0.35,-16.96 0.65,-426.04 c 0.01,-9.5 2,-19.86 4.58,-29 11.5,-40.74 42.79,-71.69 83.42,-83.29 9.41,-2.69 19.19,-4.69 29,-4.71 h 265 c 10.7,0.02 23.84,2.64 34,6 38.12,12.6 65.41,39.89 78,78 3.44,10.41 5.98,22.02 6,33 v 365 c -0.01,8.44 -1.54,16.84 -3.63,25 -11.52,44.97 -49.85,81.44 -95.37,90.6 -7.06,1.42 -11.71,2.39 -19,2.4 l -231.52,0.52 -99.1,99.07 316.62,0.41 15,-1 c 88.7,-1.03 168.17,-59.42 200.8,-141 7.51,-18.79 14.96,-47.79 15.2,-68 l 0.25,-16.69 0.25,-340.43 -0.5,-14.88 c -0.74,-63.91 -30.1,-126.87 -80,-167.2 -26.41,-21.34 -57.77,-37.04 -91,-44.38 -14.93,-3.29 -30.12,-5.92 -60,-6.42 h -236 l -21,1 c -9.14,0.01 -21.94,1.99 -31,3.8 -37.19,7.44 -71.89,22.86 -101,47.47 -14.68,12.42 -25.56,24.18 -36.85,39.73 -13.23,18.21 -23.05,38.7 -30.15,60 -6.84,20.53 -10.97,42.35 -11,64 l -1,17 v 421 c -0.01,6.11 -0.42,10.13 -2.36,16 -1.35,4.1 -3.41,8.44 -5.86,12 -13.43,19.48 -34.1,18 -54.78,18 h -368 c -47.33,-0.07 -93.13,-38.45 -110.2,-81 -4.51,-11.24 -8.65,-24.81 -8.8,-37 -0.19,-16.43 -0.06,-23.95 5.03,-40 13,-41.04 51.04,-78.34 92.97,-88.87 7.85,-1.98 12.8,-3.12 21,-3.13 h 114 c 33.17,0 65.69,0.69 98,-8.15 44.34,-12.14 83.95,-39.17 113.72,-73.85 25.79,-30.06 45.27,-69.82 51.85,-109 2.89,-17.26 2.63,-31.64 2.43,-49 -0.13,-10.57 -3.99,-29.47 -6.63,-40 -13.72,-54.87 -48.09,-102.91 -95.37,-133.92 -26.35,-17.29 -57.81,-28.87 -89,-33.21 l -18,-1.87 -22,-1 h -786 l -21,1 c -16.37,0.08 -43.41,5.95 -59,11.34 -69.67,24.1 -120.28,78.58 -141.97,148.66 -8.73,28.19 -9.36,48.05 -9.03,77 0.28,23.91 10.49,56.45 20.7,78 27.39,57.79 78.82,104.82 140.3,123.72 13.53,4.16 34.98,9.11 49,9.28 l 21,1 h 148 c 25.86,0.04 56.33,14.72 75,32.09 23.32,21.68 44.95,54.93 45,87.91 v 12 c -0.15,12.1 -4.83,27.9 -9.58,39 -15.74,36.82 -48.44,66.08 -87.42,75.87 -7.76,1.95 -13.94,3.12 -22,3.13 h -384 c -28.04,-0.04 -46.96,-17.59 -47,-46 V 83.5 C 700.48,69.44 698.48,54.2 692.13,41.5 679.3,15.84 651.99,0.2 623.5,1.24 608.91,1.78 596.77,5 584.5,13.25 568.51,24 547.05,55.94 534.63,72.5 c 0,0 -179.76,238.44 -183.13,245 z"
     style="fill:#000000;fill-opacity:1;stroke:#000000;stroke-width:1"
     inkscape:connector-curvature="0"
     sodipodi:nodetypes="ccccccccccccccccccccccccccccscscsccccscscscccccccccccccccccccccccccccccccccccccccccssscccccssccccssscscscsscssssscscccccccccccccccccccccccccccccccccccccccccsssccssssssccssssccccccccccccccccccccccccccccccccccccssscscscsscssssscssssccssssssccssssccccccccccccccccccccccccccccccccccccccccccccccccccccccccccccccccccccccccccccccccccccccccccccccccccccccscccccccccccccscccccccccccccccccccccccccccccccccsccccccsccccccccccccccccccccccccccccscccc" />
</svg>
